HIERARCHY
ROOT pelvis
{
  OFFSET 0 100 0
  CHANNELS 6 Xposition Yposition Zposition Zrotation Xrotation Yrotation
  JOINT pelvis_right_femur
  {
    OFFSET -10.78128 -3.44521 -0.5502486
    CHANNELS 3 Zrotation Xrotation Yrotation
    JOINT right_femur_tibia
    {
      OFFSET -0.8047443 -44.0398 -0.1307829
      CHANNELS 3 Zrotation Xrotation Yrotation
      JOINT right_tibia_foot
      {
        OFFSET 3.006224 -47.83518 -5
        CHANNELS 3 Zrotation Xrotation Yrotation
        End Site
        {
          OFFSET 0 -5 15
        }
      }
    }
  }
  JOINT pelvis_left_femur
  {
    OFFSET 10.78128 -3.44521 -0.5502486
    CHANNELS 3 Zrotation Xrotation Yrotation
    JOINT left_femur_tibia
    {
      OFFSET 0.8047443 -44.0398 -0.1307829
      CHANNELS 3 Zrotation Xrotation Yrotation
      JOINT left_tibia_foot
      {
        OFFSET -4.370144 -48.10324 -4.275266
        CHANNELS 3 Zrotation Xrotation Yrotation
        End Site
        {
          OFFSET 0 -5 15
        }
      }
    }
  }
  JOINT pelvis_spine1
  {
    OFFSET 0 6.468898 -3.129235
    CHANNELS 3 Zrotation Xrotation Yrotation
    JOINT spine1
    {
      OFFSET 0 23.15396 4.99043
      CHANNELS 3 Zrotation Xrotation Yrotation
      JOINT spine2
      {
        OFFSET 0 20.79997 -5.064912
        CHANNELS 3 Zrotation Xrotation Yrotation
        JOINT neck
        {
          OFFSET 0 14.38658 9.616178
          CHANNELS 3 Zrotation Xrotation Yrotation
          End Site
          {
            OFFSET 0 20 0
          }
        }
      }
      JOINT right_manubrium
      {
        OFFSET -5.722621 16.35077 3.967754
        CHANNELS 3 Zrotation Xrotation Yrotation
        JOINT right_clavicle
        {
          OFFSET -13.16364 1.694482 -4.693211
          CHANNELS 3 Zrotation Xrotation Yrotation
          JOINT right_humerus
          {
            OFFSET -28.5034 -0.3100689 -2.792744
            CHANNELS 3 Zrotation Xrotation Yrotation
            JOINT right_radius
            {
              OFFSET -25.15693 0.02248979 -1.271978
              CHANNELS 3 Zrotation Xrotation Yrotation
              End Site
              {
                OFFSET -15 0 0
              }
            }
          }
        }
      }
      JOINT left_manubrium
      {
        OFFSET 5.722621 16.35077 3.967754
        CHANNELS 3 Zrotation Xrotation Yrotation
        JOINT left_clavicle
        {
          OFFSET 13.16364 1.694482 -4.693211
          CHANNELS 3 Zrotation Xrotation Yrotation
          JOINT left_humerus
          {
            OFFSET 29.39168 -1.063119 -2.237045
            CHANNELS 3 Zrotation Xrotation Yrotation
            JOINT left_radius
            {
              OFFSET 24.59957 -0.9528479 0.9047498
              CHANNELS 3 Zrotation Xrotation Yrotation
              End Site
              {
                OFFSET 15 -0 -0
              }
            }
          }
        }
      }
    }
  }
}
MOTION
Frames: 15
Frame Time: 0.0416666666667
0 103.5113 0 0.512089 -0.3580674 0.7724564 1.952557 -23.12289 4.573637 -0 31.82832 -0 -3.003766 -8.307494 -3.562836 -6.176653 11.98319 -18.06475 0 -5.533978 0 2.242665 -22.38293 20.89085 -3.377132 -1.492591 3.452543 1.642006 8.226063 -7.446717 1.355293 21.53655 7.792284 3.363256 -22.51532 9.622141 4.689443 -18.02127 10.4241 86.04659 33.66119 -18.35663 -0 0 15.41067 -13.49269 10.75168 7.788774 7.011666 -20.00536 -2.238916 -89.84448 28.55741 16.77043 0 0 -20.28748 3.371682 13.45749 10.50671
0.5772929 102.1719 3.45322 0.609192 -0.4215692 1.594269 1.670625 -22.37899 4.677213 -0 33.52149 -0 -2.668798 -8.289075 -3.560005 -6.309187 11.54458 -18.25473 0 -6.733955 0 2.232358 -22.49622 21.13588 -3.509912 -1.472943 3.496905 1.544161 8.126872 -7.309135 1.375615 21.5765 7.847066 3.363841 -22.41926 9.7015 4.800455 -18.05238 10.37462 85.65007 33.76049 -17.84143 -0 0 15.81147 -13.68009 10.78211 7.985945 6.956036 -19.65325 -2.148387 -90.11781 28.86477 17.14427 0 0 -19.67216 2.962266 13.32638 11.04487
1.08123 100.8653 7.008128 0.430598 -0.33666 2.298519 2.309563 -23.8565 4.612366 -0 30.06403 -0 -3.103504 -8.384443 -3.723899 -6.034285 12.45274 -17.71547 0 -3.060399 0 1.858135 -22.1277 20.42072 -3.207095 -1.449406 3.417025 1.73044 8.286714 -7.580596 1.358216 21.50671 7.740201 3.346942 -22.5043 9.556466 4.6397 -17.78873 10.45661 86.47686 33.60139 -19.00796 -0 0 14.83945 -13.37532 10.89191 7.55542 7.041022 -20.29743 -2.294298 -89.44619 28.41906 16.13165 0 0 -21.07465 3.535017 13.39614 10.28765
1.520641 99.45141 10.45018 0.175139 0.2377426 2.89283 3.016198 -25.99118 4.627019 -0 25.8629 -0 -3.814 -9.233736 -3.630159 -5.747202 13.40079 -17.73709 0 -2.312716 0 2.261043 -22.27978 20.22134 -2.987313 -1.554124 3.354186 2.036387 8.369256 -7.945642 1.281354 21.32953 7.6793 3.37205 -22.92947 9.453428 4.596231 -17.86278 10.5796 87.02115 33.89754 -20.05155 -0 0 14.31798 -12.49109 10.76596 7.007389 7.250728 -21.03199 -2.315066 -89.16218 28.08814 15.72086 0 0 -22.5112 4.372553 13.8579 9.263626
1.886774 97.94853 13.8474 -0.04694833 0.6026897 3.388093 3.661366 -27.74811 4.635283 -0 22.18424 -0 -4.402106 -9.768153 -3.626549 -5.485208 14.25854 -17.57681 0 -0.6832011 0 2.396904 -22.24701 19.87254 -2.754624 -1.612289 3.29122 2.282312 8.474982 -8.254577 1.228128 21.20019 7.60502 3.380898 -23.21655 9.340094 4.509127 -17.83256 10.68237 87.63095 33.99983 -21.05893 -0 0 13.69012 -11.86224 10.71131 6.5404 7.404598 -21.69174 -2.378006 -88.78512 27.71824 15.16056 0 0 -23.82742 5.089884 14.15338 8.369007
2.185734 96.39196 17.24211 -0.2334904 0.8288248 3.793679 4.210775 -29.17504 4.601895 -0 19.061 -0 -4.938288 -10.05364 -3.640169 -5.258797 15.01018 -17.34849 -0 1.10872 -0 2.452843 -22.13361 19.50194 -2.535639 -1.65318 3.228631 2.479146 8.599608 -8.512346 1.187176 21.10625 7.525752 3.382717 -23.426 9.22299 4.383431 -17.78623 10.77077 88.23763 33.95904 -21.95166 -0 0 13.06824 -11.41399 10.6639 6.159134 7.520024 -22.28341 -2.474137 -88.40352 27.29895 14.60134 0 0 -24.95376 5.753279 14.37081 7.525734
2.425274 94.83918 20.71619 -0.3586581 0.8273369 4.121255 4.635512 -30.11493 4.534113 -0 16.75084 -0 -5.311724 -9.978132 -3.73007 -5.084568 15.62802 -16.95721 -0 3.607496 -0 2.247945 -21.84822 19.01669 -2.323862 -1.645415 3.167369 2.598696 8.740278 -8.692707 1.173247 21.06929 7.440619 3.369356 -23.48036 9.105779 4.221797 -17.63999 10.83141 88.84877 33.72298 -22.72224 -0 0 12.38803 -11.25963 10.69416 5.889683 7.568467 -22.75302 -2.61062 -87.96252 26.86634 13.93781 0 0 -25.86197 6.239231 14.4152 6.87961
2.615206 93.35455 24.35753 -0.4193866 0.5942615 4.382052 4.937088 -30.56448 4.422477 -0 15.22666 -0 -5.519907 -9.538341 -3.897302 -4.961536 16.11071 -16.38741 -0 6.887754 -0 1.77163 -21.37409 18.4084 -2.115043 -1.586745 3.107688 2.640702 8.899594 -8.795854 1.187102 21.08977 7.347723 3.340377 -23.37548 8.986503 4.02176 -17.38809 10.86534 89.46611 33.28717 -23.3737 -0 0 11.63815 -11.40374 10.80963 5.73024 7.548089 -23.10353 -2.790471 -87.45717 26.41354 13.15926 0 0 -26.56222 6.542875 14.28595 6.43378
2.764475 92.00747 28.25857 -0.41613 0.130511 4.585138 5.133378 -30.51581 4.282027 -0 14.41848 -0 -5.539806 -8.768361 -4.15609 -4.883776 16.43909 -15.6159 -0 11.10197 -0 0.9895665 -20.68183 17.66127 -1.901582 -1.470522 3.054423 2.606242 9.073773 -8.822046 1.230617 21.16604 7.245293 3.294207 -23.10308 8.86468 3.790289 -17.01417 10.87376 90.08589 32.66413 -23.91639 -0 0 10.80623 -11.84607 11.03103 5.675173 7.456948 -23.33126 -3.007864 -86.88274 25.95464 12.24936 0 0 -27.08006 6.636941 13.97008 6.222589
2.880998 90.87136 32.51217 -0.3517281 -0.5599834 4.736402 5.245161 -29.93775 4.127321 -0 14.23008 -0 -5.35896 -7.717514 -4.514896 -4.83956 16.56318 -14.62146 -0 16.35862 -0 -0.1130851 -19.73586 16.77568 -1.675473 -1.292317 3.016352 2.496636 9.260922 -8.769851 1.304468 21.29505 7.129449 3.229295 -22.65942 8.737365 3.530751 -16.51612 10.86005 90.69838 31.86598 -24.34789 -0 0 9.896075 -12.58501 11.37152 5.724503 7.293709 -23.43363 -3.256369 -86.24681 25.4946 11.21656 0 0 -27.42886 6.50649 13.45995 6.265731
2.972421 90.02494 37.21034 -0.2280632 -1.4767 4.837883 5.291145 -28.73461 3.981163 -0 14.58104 -0 -4.95263 -6.459207 -4.982974 -4.810208 16.37287 -13.379 -0 22.75781 -0 -1.553575 -18.48422 15.76638 -1.429808 -1.045418 3.010343 2.309016 9.456346 -8.629838 1.410064 21.47398 6.995075 3.142978 -22.03563 8.601386 3.248636 -15.89927 10.8276 91.27428 30.91024 -24.63929 -0 0 8.936537 -13.62998 11.84769 5.890793 7.053748 -23.39303 -3.523722 -85.57247 25.04839 10.09787 0 0 -27.59414 6.121038 12.73886 6.604268
3.047634 89.54813 42.43545 -0.04983328 -2.606456 4.886364 5.290068 -26.74096 3.874177 -0 15.36166 -0 -4.299649 -5.12739 -5.555695 -4.759185 15.6694 -11.87518 -0 30.28605 -0 -3.322799 -16.86997 14.68387 -1.160466 -0.7253421 3.065957 2.03965 9.65153 -8.385367 1.547089 21.69612 6.835311 3.032323 -21.22973 8.452333 2.952218 -15.19639 10.78186 91.7519 29.83424 -24.72331 -0 0 8.007598 -14.98504 12.46925 6.199556 6.732524 -23.17904 -3.787153 -84.91509 24.64286 8.993909 0 0 -27.52483 5.447859 11.79429 7.286564
3.11858 89.50439 48.23671 0.1666148 -3.887299 4.869954 5.267209 -23.74907 3.848149 -0 16.34301 -0 -3.412955 -3.983821 -6.186792 -4.61548 14.14251 -10.14321 -0 38.61395 -0 -5.336525 -14.86784 13.64385 -0.8699749 -0.3389537 3.230766 1.692982 9.830204 -8.018408 1.708584 21.94203 6.642681 2.896239 -20.27226 8.28453 2.65757 -14.49917 10.73349 92.01839 28.72754 -24.48601 -0 0 7.280178 -16.6075 13.22063 6.680822 6.334031 -22.75675 -4.003752 -84.38803 24.32638 8.121479 0 0 -27.13248 4.475491 10.646 8.343949
3.20211 89.9007 54.58938 0.3817419 -5.162713 4.762991 5.255916 -19.60697 3.943038 -0 17.08023 -0 -2.400249 -3.457169 -6.743961 -4.266033 11.40959 -8.310933 -0 46.79943 -0 -7.363631 -12.55728 12.84746 -0.5738516 0.07943275 3.566933 1.296154 9.968852 -7.524242 1.873404 22.16954 6.412151 2.739632 -19.2656 8.090707 2.38862 -13.99632 10.70176 91.9061 27.75672 -23.7753 -0 0 7.044203 -18.3469 14.02778 7.346643 5.884196 -22.11376 -4.108336 -84.18389 24.15991 7.85776 0 0 -26.30677 3.265942 9.397738 9.727368
3.320987 90.63416 61.35745 0.5332136 -6.178723 4.526114 5.283227 -14.40239 4.15797 -0 16.97352 -0 -1.508424 -4.022696 -6.996027 -3.598996 7.209797 -6.615066 -0 53.177 -0 -8.998986 -10.19601 12.5382 -0.3056887 0.4563043 4.122487 0.9074312 10.04848 -6.931823 2.003125 22.31666 6.147298 2.577772 -18.40193 7.863802 2.165343 -13.96298 10.71289 91.24519 27.12858 -22.45443 -0 0 7.645939 -19.91852 14.73424 8.158378 5.439316 -21.30197 -4.038092 -84.54532 24.16476 8.673425 0 0 -24.9641 2.007343 8.279959 11.23002
